<svg width="109" height="23" viewBox="0 0 109 23" fill="none" xmlns="http://www.w3.org/2000/svg">
<path d="M27.7382 7.7832C27.7382 6.80664 27.9648 6.02344 28.4179 5.43359C28.871 4.83984 29.4785 4.54297 30.2402 4.54297C30.912 4.54297 31.455 4.77734 31.8691 5.24609V2H33.2929V11H32.0038L31.9335 10.3438C31.5078 10.8594 30.9394 11.1172 30.2285 11.1172C29.4863 11.1172 28.8847 10.8184 28.4238 10.2207C27.9667 9.62305 27.7382 8.81055 27.7382 7.7832ZM29.162 7.90625C29.162 8.55078 29.2851 9.05469 29.5312 9.41797C29.7812 9.77734 30.1347 9.95703 30.5917 9.95703C31.1738 9.95703 31.5995 9.69727 31.8691 9.17773V6.4707C31.6074 5.96289 31.1855 5.70898 30.6035 5.70898C30.1425 5.70898 29.787 5.89258 29.537 6.25977C29.287 6.62305 29.162 7.17188 29.162 7.90625ZM40.2463 11C40.1838 10.8789 40.1292 10.6816 40.0823 10.4082C39.6292 10.8809 39.0745 11.1172 38.4182 11.1172C37.7815 11.1172 37.262 10.9355 36.8596 10.5723C36.4573 10.209 36.2561 9.75977 36.2561 9.22461C36.2561 8.54883 36.5061 8.03125 37.0061 7.67188C37.51 7.30859 38.2288 7.12695 39.1624 7.12695H40.0354V6.71094C40.0354 6.38281 39.9436 6.12109 39.76 5.92578C39.5764 5.72656 39.2971 5.62695 38.9221 5.62695C38.5979 5.62695 38.3323 5.70898 38.1253 5.87305C37.9182 6.0332 37.8147 6.23828 37.8147 6.48828H36.3909C36.3909 6.14062 36.5061 5.81641 36.7366 5.51562C36.967 5.21094 37.2795 4.97266 37.6741 4.80078C38.0725 4.62891 38.5159 4.54297 39.0042 4.54297C39.7463 4.54297 40.3381 4.73047 40.7795 5.10547C41.221 5.47656 41.4475 6 41.4592 6.67578V9.53516C41.4592 10.1055 41.5393 10.5605 41.6995 10.9004V11H40.2463ZM38.6819 9.97461C38.9631 9.97461 39.2268 9.90625 39.4729 9.76953C39.7229 9.63281 39.9104 9.44922 40.0354 9.21875V8.02344H39.2678C38.7405 8.02344 38.344 8.11523 38.0784 8.29883C37.8128 8.48242 37.6799 8.74219 37.6799 9.07812C37.6799 9.35156 37.7698 9.57031 37.9495 9.73438C38.1331 9.89453 38.3772 9.97461 38.6819 9.97461ZM47.9498 5.96094C47.7623 5.92969 47.5689 5.91406 47.3697 5.91406C46.7174 5.91406 46.2779 6.16406 46.0513 6.66406V11H44.6275V4.66016H45.9869L46.022 5.36914C46.3658 4.81836 46.8424 4.54297 47.4517 4.54297C47.6549 4.54297 47.8228 4.57031 47.9556 4.625L47.9498 5.96094ZM56.204 9.03711L57.2118 4.66016H58.6005L56.872 11H55.7001L54.3407 6.64648L53.0048 11H51.8329L50.0985 4.66016H51.4872L52.5126 8.99023L53.8134 4.66016H54.8856L56.204 9.03711ZM62.7473 11H61.3235V4.66016H62.7473V11ZM61.2356 3.01367C61.2356 2.79492 61.3039 2.61328 61.4406 2.46875C61.5813 2.32422 61.7805 2.25195 62.0383 2.25195C62.2961 2.25195 62.4953 2.32422 62.636 2.46875C62.7766 2.61328 62.8469 2.79492 62.8469 3.01367C62.8469 3.22852 62.7766 3.4082 62.636 3.55273C62.4953 3.69336 62.2961 3.76367 62.0383 3.76367C61.7805 3.76367 61.5813 3.69336 61.4406 3.55273C61.3039 3.4082 61.2356 3.22852 61.2356 3.01367ZM67.3042 4.66016L67.3453 5.39258C67.814 4.82617 68.4292 4.54297 69.191 4.54297C70.5113 4.54297 71.1831 5.29883 71.2066 6.81055V11H69.7828V6.89258C69.7828 6.49023 69.6949 6.19336 69.5191 6.00195C69.3472 5.80664 69.064 5.70898 68.6695 5.70898C68.0953 5.70898 67.6675 5.96875 67.3863 6.48828V11H65.9624V4.66016H67.3042ZM77.8963 9.27734C77.8963 9.02344 77.7909 8.83008 77.5799 8.69727C77.3729 8.56445 77.0272 8.44727 76.5428 8.3457C76.0585 8.24414 75.6542 8.11523 75.3299 7.95898C74.619 7.61523 74.2635 7.11719 74.2635 6.46484C74.2635 5.91797 74.494 5.46094 74.9549 5.09375C75.4159 4.72656 76.0018 4.54297 76.7127 4.54297C77.4706 4.54297 78.0819 4.73047 78.5467 5.10547C79.0155 5.48047 79.2499 5.9668 79.2499 6.56445H77.826C77.826 6.29102 77.7245 6.06445 77.5213 5.88477C77.3182 5.70117 77.0487 5.60938 76.7127 5.60938C76.4002 5.60938 76.1444 5.68164 75.9452 5.82617C75.7499 5.9707 75.6522 6.16406 75.6522 6.40625C75.6522 6.625 75.744 6.79492 75.9276 6.91602C76.1112 7.03711 76.4823 7.16016 77.0409 7.28516C77.5995 7.40625 78.037 7.55273 78.3534 7.72461C78.6737 7.89258 78.91 8.0957 79.0624 8.33398C79.2186 8.57227 79.2967 8.86133 79.2967 9.20117C79.2967 9.77148 79.0604 10.2344 78.5877 10.5898C78.1151 10.9414 77.496 11.1172 76.7303 11.1172C76.2108 11.1172 75.7479 11.0234 75.3417 10.8359C74.9354 10.6484 74.619 10.3906 74.3924 10.0625C74.1659 9.73438 74.0526 9.38086 74.0526 9.00195H75.4354C75.4549 9.33789 75.5819 9.59766 75.8163 9.78125C76.0506 9.96094 76.3612 10.0508 76.7479 10.0508C77.1229 10.0508 77.4081 9.98047 77.6034 9.83984C77.7987 9.69531 77.8963 9.50781 77.8963 9.27734ZM84.006 3.11914V4.66016H85.1252V5.71484H84.006V9.25391C84.006 9.49609 84.0529 9.67188 84.1467 9.78125C84.2443 9.88672 84.4162 9.93945 84.6623 9.93945C84.8263 9.93945 84.9924 9.91992 85.1603 9.88086V10.9824C84.8361 11.0723 84.5236 11.1172 84.2228 11.1172C83.1291 11.1172 82.5822 10.5137 82.5822 9.30664V5.71484H81.5392V4.66016H82.5822V3.11914H84.006ZM87.4556 7.77148C87.4556 7.15039 87.5786 6.5918 87.8247 6.0957C88.0708 5.5957 88.4165 5.21289 88.8618 4.94727C89.3071 4.67773 89.8188 4.54297 90.397 4.54297C91.2524 4.54297 91.9458 4.81836 92.477 5.36914C93.0122 5.91992 93.3013 6.65039 93.3442 7.56055L93.3501 7.89453C93.3501 8.51953 93.229 9.07812 92.9868 9.57031C92.7485 10.0625 92.4048 10.4434 91.9556 10.7129C91.5103 10.9824 90.9946 11.1172 90.4087 11.1172C89.5142 11.1172 88.7974 10.8203 88.2583 10.2266C87.7231 9.62891 87.4556 8.83398 87.4556 7.8418V7.77148ZM88.8794 7.89453C88.8794 8.54688 89.0142 9.05859 89.2837 9.42969C89.5532 9.79688 89.9282 9.98047 90.4087 9.98047C90.8892 9.98047 91.2622 9.79297 91.5278 9.41797C91.7974 9.04297 91.9321 8.49414 91.9321 7.77148C91.9321 7.13086 91.7935 6.62305 91.5161 6.24805C91.2427 5.87305 90.8696 5.68555 90.397 5.68555C89.9321 5.68555 89.563 5.87109 89.2895 6.24219C89.0161 6.60938 88.8794 7.16016 88.8794 7.89453ZM99.5535 5.96094C99.366 5.92969 99.1727 5.91406 98.9735 5.91406C98.3211 5.91406 97.8817 6.16406 97.6551 6.66406V11H96.2313V4.66016H97.5906L97.6258 5.36914C97.9696 4.81836 98.4461 4.54297 99.0555 4.54297C99.2586 4.54297 99.4266 4.57031 99.5594 4.625L99.5535 5.96094ZM104.456 8.96094L105.745 4.66016H107.263L104.743 11.9609C104.357 13.0273 103.7 13.5605 102.775 13.5605C102.568 13.5605 102.339 13.5254 102.089 13.4551V12.3535L102.359 12.3711C102.718 12.3711 102.987 12.3047 103.167 12.1719C103.351 12.043 103.495 11.8242 103.601 11.5156L103.806 10.9707L101.579 4.66016H103.114L104.456 8.96094Z" fill="white"/>
<path d="M31.9628 16.1094H30.1894V21H29.2089V16.1094H27.4511V15.3125H31.9628V16.1094ZM35.6027 18.8086H34.5011V21H33.5128V15.3125H35.5128C36.1691 15.3125 36.6756 15.4596 37.0324 15.7539C37.3891 16.0482 37.5675 16.474 37.5675 17.0312C37.5675 17.4115 37.4751 17.7305 37.2902 17.9883C37.1079 18.2435 36.8527 18.4401 36.5245 18.5781L37.8019 20.9492V21H36.7433L35.6027 18.8086ZM34.5011 18.0156H35.5167C35.8501 18.0156 36.1105 17.9323 36.298 17.7656C36.4855 17.5964 36.5792 17.3659 36.5792 17.0742C36.5792 16.7695 36.492 16.5339 36.3175 16.3672C36.1456 16.2005 35.8878 16.1146 35.5441 16.1094H34.5011V18.0156ZM42.4886 19.6758H40.2855L39.8245 21H38.7972L40.9456 15.3125H41.8324L43.9847 21H42.9535L42.4886 19.6758ZM40.5628 18.8789H42.2113L41.387 16.5195L40.5628 18.8789ZM47.1324 19.7617L48.5777 15.3125H49.6636L47.6167 21H46.6597L44.6206 15.3125H45.7027L47.1324 19.7617ZM54.4324 18.4609H52.0964V20.2109H54.8269V21H51.1081V15.3125H54.7995V16.1094H52.0964V17.6797H54.4324V18.4609ZM57.4199 20.2109H60.0019V21H56.4316V15.3125H57.4199V20.2109ZM67.5355 19.6758H65.3324L64.8714 21H63.8441L65.9925 15.3125H66.8792L69.0316 21H68.0003L67.5355 19.6758ZM65.6097 18.8789H67.2581L66.4339 16.5195L65.6097 18.8789ZM74.7535 20.2617C74.5477 20.5299 74.2626 20.7331 73.898 20.8711C73.5334 21.0091 73.1193 21.0781 72.6558 21.0781C72.1792 21.0781 71.7574 20.9701 71.3902 20.7539C71.023 20.5378 70.7391 20.2292 70.5386 19.8281C70.3407 19.4245 70.2378 18.9544 70.23 18.418V17.9727C70.23 17.1133 70.4357 16.4427 70.8472 15.9609C71.2587 15.4766 71.8329 15.2344 72.5699 15.2344C73.2027 15.2344 73.7053 15.3906 74.0777 15.7031C74.4501 16.0156 74.674 16.4661 74.7495 17.0547H73.7808C73.6714 16.3698 73.2743 16.0273 72.5894 16.0273C72.1467 16.0273 71.8094 16.1875 71.5777 16.5078C71.3485 16.8255 71.23 17.293 71.2222 17.9102V18.3477C71.2222 18.9622 71.3511 19.4401 71.6089 19.7812C71.8693 20.1198 72.23 20.2891 72.691 20.2891C73.1962 20.2891 73.5555 20.1745 73.7691 19.9453V18.832H72.5972V18.082H74.7535V20.2617ZM79.9636 18.4609H77.6277V20.2109H80.3581V21H76.6394V15.3125H80.3308V16.1094H77.6277V17.6797H79.9636V18.4609ZM86.4745 21H85.4863L82.9511 16.9648V21H81.9628V15.3125H82.9511L85.4941 19.3633V15.3125H86.4745V21ZM92.7824 19.1484C92.7251 19.7552 92.5011 20.2292 92.1105 20.5703C91.7199 20.9089 91.2003 21.0781 90.5519 21.0781C90.0988 21.0781 89.699 20.9714 89.3527 20.7578C89.0089 20.5417 88.7433 20.2357 88.5558 19.8398C88.3683 19.444 88.2706 18.9844 88.2628 18.4609V17.9297C88.2628 17.3932 88.3579 16.9206 88.548 16.5117C88.7381 16.1029 89.0102 15.7878 89.3644 15.5664C89.7212 15.3451 90.1326 15.2344 90.5988 15.2344C91.2264 15.2344 91.7316 15.4049 92.1144 15.7461C92.4972 16.0872 92.7199 16.569 92.7824 17.1914H91.798C91.7511 16.7826 91.6313 16.4883 91.4386 16.3086C91.2485 16.1263 90.9686 16.0352 90.5988 16.0352C90.1691 16.0352 89.8383 16.1927 89.6066 16.5078C89.3774 16.8203 89.2602 17.2799 89.255 17.8867V18.3906C89.255 19.0052 89.3644 19.474 89.5831 19.7969C89.8045 20.1198 90.1274 20.2812 90.5519 20.2812C90.9399 20.2812 91.2316 20.194 91.4269 20.0195C91.6222 19.8451 91.7459 19.5547 91.798 19.1484H92.7824ZM96.3245 18.0078L97.6331 15.3125H98.7269L96.8206 18.9062V21H95.8285V18.9062L93.9183 15.3125H95.016L96.3245 18.0078Z" fill="white" fill-opacity="0.7"/>
<path d="M20.7265 7.78405L7.69276 19.9572C7.68593 19.9636 7.67738 19.97 7.66884 19.9732C7.58338 20.0498 7.48425 20.1073 7.37999 20.1472C7.26377 20.1919 7.14243 20.2142 7.01937 20.2142C6.89631 20.2142 6.77497 20.1919 6.65874 20.1472C6.55107 20.1057 6.44852 20.0434 6.35965 19.962L4.64198 18.3593C4.58387 18.3051 4.5514 18.2348 4.54285 18.1598C4.53601 18.0896 4.5531 18.0161 4.59412 17.9523L4.59925 17.9443C4.70009 17.8022 4.77016 17.6474 4.81118 17.4862C4.85391 17.3234 4.86587 17.1542 4.84878 16.9865V16.9849C4.82998 16.8205 4.78213 16.6577 4.70522 16.5045C4.63172 16.3592 4.52918 16.2203 4.39928 16.099C4.26939 15.9777 4.12241 15.8819 3.96517 15.8133C3.80109 15.7399 3.62676 15.6952 3.45072 15.6792C3.2781 15.6632 3.09864 15.6744 2.92602 15.7127C2.75682 15.751 2.59445 15.8149 2.44576 15.9043C2.37568 15.9538 2.29364 15.9745 2.21161 15.9681C2.12957 15.9633 2.04753 15.9298 1.986 15.8723L0.275169 14.2729C0.184585 14.1883 0.11793 14.0909 0.0717832 13.9888C0.0239277 13.8818 0 13.7669 0 13.6519C0 13.537 0.0239277 13.4221 0.0717832 13.3151C0.11622 13.213 0.182876 13.1188 0.270041 13.0358L13.3089 0.856243C13.3995 0.77164 13.5038 0.709386 13.6132 0.666286C13.7294 0.621591 13.8524 0.599243 13.9755 0.599243C14.0986 0.599243 14.2216 0.621591 14.3361 0.666286C14.4472 0.709386 14.5515 0.77164 14.6404 0.856243L16.3649 2.46688C16.4195 2.51796 16.4537 2.5866 16.4623 2.65843C16.4708 2.72707 16.4571 2.8005 16.4178 2.86435L16.4144 2.86914C16.3221 3.00801 16.2572 3.15806 16.2196 3.3145C16.182 3.47412 16.1734 3.64014 16.1939 3.80136V3.80296C16.2145 3.96258 16.264 4.11902 16.3426 4.26747C16.4161 4.40794 16.517 4.54203 16.6452 4.66175V4.66335C16.7699 4.78307 16.9118 4.87565 17.0622 4.94588C17.2194 5.01772 17.3903 5.06401 17.563 5.08316C17.7322 5.10232 17.9048 5.09593 18.074 5.06241C18.2398 5.03049 18.4021 4.97302 18.5508 4.89002C18.6209 4.84851 18.7029 4.82936 18.785 4.83574C18.8636 4.84213 18.9405 4.87246 19.0003 4.92992L20.7248 6.54056C20.8154 6.62516 20.8821 6.72253 20.9282 6.82469C20.9761 6.93324 21 7.04817 21 7.16151C21 7.27644 20.9761 7.39137 20.9282 7.49832C20.8838 7.59888 20.8171 7.69466 20.73 7.77767L20.7265 7.78405ZM3.35672 11.0867L9.7796 17.0855L17.6484 9.73629L11.2255 3.73751L3.35672 11.0867ZM9.28909 17.542L2.8662 11.5449L0.775942 13.4971C0.753723 13.5179 0.736632 13.5418 0.726377 13.5689C0.714414 13.5977 0.707577 13.628 0.707577 13.6567C0.707577 13.6887 0.712704 13.7174 0.724668 13.7445C0.736632 13.7701 0.753723 13.7956 0.775942 13.8164L2.30048 15.2402C2.48165 15.1572 2.67307 15.0982 2.8662 15.063C3.08326 15.0247 3.30374 15.0152 3.5225 15.0359C3.77887 15.0583 4.03011 15.1205 4.26426 15.2243C4.49499 15.3264 4.70864 15.4653 4.89835 15.6425C5.08464 15.8165 5.23163 16.016 5.3393 16.2283C5.4521 16.4502 5.52047 16.688 5.54781 16.9275C5.57003 17.1318 5.56149 17.3393 5.51876 17.5405C5.48116 17.7224 5.41792 17.8996 5.32905 18.0688L6.85358 19.4927C6.8758 19.5134 6.90144 19.5294 6.9305 19.539C6.96126 19.5502 6.99373 19.5565 7.0245 19.5565C7.05697 19.5565 7.08944 19.5502 7.1185 19.539C7.14585 19.5278 7.17319 19.5118 7.19541 19.4911L9.28909 17.542ZM11.716 3.27938L18.1389 9.27816L20.2326 7.32273C20.2411 7.31475 20.2497 7.30996 20.2599 7.30677C20.2719 7.2908 20.2822 7.27484 20.289 7.25728C20.301 7.22855 20.3078 7.19822 20.3078 7.16949C20.3078 7.13916 20.3027 7.11043 20.2907 7.08489L20.289 7.08169C20.2787 7.05615 20.2617 7.03381 20.2411 7.01305L18.6978 5.57162C18.5166 5.64665 18.3286 5.69932 18.1355 5.72965C17.9236 5.76158 17.7082 5.76637 17.4929 5.74242C17.2416 5.71529 16.9989 5.64984 16.7699 5.54608C16.5477 5.44552 16.3409 5.30983 16.1563 5.13744C15.9718 4.96504 15.8265 4.77189 15.7188 4.56438C15.6077 4.34888 15.5359 4.12061 15.5069 3.88756C15.4812 3.68802 15.4864 3.48689 15.5205 3.28896C15.553 3.10858 15.6094 2.93299 15.6898 2.76378L14.1498 1.32555C14.1293 1.30639 14.1037 1.29043 14.0763 1.27925L14.0729 1.27766C14.0422 1.26648 14.0097 1.2601 13.9789 1.2601C13.9447 1.2601 13.914 1.26489 13.8849 1.27606C13.8576 1.28724 13.8302 1.3032 13.808 1.32395L11.716 3.27938Z" fill="white"/>
<path d="M9.35064 13.1172C9.5489 12.9321 9.64119 12.7421 9.67366 12.541C9.70272 12.3558 9.68392 12.1643 9.65486 11.9536L10.5026 11.1618L11.4324 13.4205C11.4494 13.4604 11.499 13.4812 11.5417 13.4652C11.552 13.4604 11.5622 13.4557 11.5708 13.4477C11.7605 13.2721 11.9092 13.1667 12.022 13.0869L12.0223 13.0867C12.3416 12.8618 12.4031 12.8185 12.2561 12.2074L12.6458 11.8434C12.6783 11.8131 12.6783 11.762 12.6458 11.7317L12.2527 11.3645C12.2203 11.3342 12.1656 11.3342 12.1331 11.3645L12.063 11.43L11.9998 11.1746L12.4407 10.7627C12.4732 10.7324 12.4732 10.6813 12.4407 10.651L12.0476 10.2839C12.0152 10.2535 11.9605 10.2535 11.928 10.2839L11.8066 10.3972L11.7144 10.0285L12.6817 9.12497C12.7706 9.04037 12.8048 8.92065 12.786 8.79614C12.7689 8.67802 12.7039 8.55511 12.598 8.45614L12.5963 8.45454C12.4903 8.35717 12.3604 8.29651 12.2356 8.28055C12.1023 8.26299 11.9741 8.29332 11.8836 8.37792L10.9162 9.28141L10.5163 9.19521L10.6393 9.08028C10.6718 9.04995 10.6718 8.99887 10.6393 8.96854L10.2462 8.6014C10.2137 8.57107 10.1591 8.57107 10.1266 8.6014L9.68392 9.01483L9.41046 8.95577L9.48224 8.88873C9.51471 8.8584 9.51471 8.80732 9.48224 8.77699L9.08914 8.40984C9.05667 8.37952 9.00198 8.37952 8.9695 8.40984L8.57811 8.77539C7.92585 8.63505 7.88941 8.67794 7.62689 8.98681L7.62613 8.98769C7.53897 9.08986 7.42275 9.22554 7.23645 9.39953C7.20398 9.42986 7.20398 9.48094 7.23645 9.51127C7.24671 9.52085 7.25867 9.52723 7.27234 9.53043L9.70443 10.4132L8.86354 11.1985C8.63622 11.157 8.43968 11.1315 8.24484 11.1586C8.0329 11.189 7.83123 11.2815 7.60904 11.4891C7.57657 11.5194 7.57657 11.5705 7.60904 11.6008L8.05341 12.0222C8.06709 12.0366 8.08418 12.0446 8.10298 12.0461C8.19527 12.0557 8.28414 12.0653 8.36106 12.0717L8.47215 12.0829C8.4824 12.1004 8.49437 12.1164 8.50633 12.1323L8.50975 12.1371C8.53026 12.1643 8.55248 12.1882 8.57811 12.2122L8.58324 12.2169C8.6123 12.2425 8.64306 12.2664 8.67383 12.2872C8.69433 12.3 8.71484 12.3127 8.73706 12.3239L8.74903 12.4117C8.76099 12.4899 8.77466 12.5857 8.79346 12.6974C8.79688 12.7134 8.80543 12.7294 8.81739 12.7405L9.22929 13.1188C9.24638 13.1332 9.26689 13.1412 9.28911 13.1412C9.31304 13.1412 9.33526 13.1316 9.35064 13.1172Z" fill="white"/>
</svg>
