<svg width="100" height="23" viewBox="0 0 100 23" fill="none" xmlns="http://www.w3.org/2000/svg">
<path d="M27.7382 7.7832C27.7382 6.80664 27.9648 6.02344 28.4179 5.43359C28.871 4.83984 29.4785 4.54297 30.2402 4.54297C30.912 4.54297 31.455 4.77734 31.8691 5.24609V2H33.2929V11H32.0038L31.9335 10.3438C31.5078 10.8594 30.9394 11.1172 30.2285 11.1172C29.4863 11.1172 28.8847 10.8184 28.4238 10.2207C27.9667 9.62305 27.7382 8.81055 27.7382 7.7832ZM29.162 7.90625C29.162 8.55078 29.2851 9.05469 29.5312 9.41797C29.7812 9.77734 30.1347 9.95703 30.5917 9.95703C31.1738 9.95703 31.5995 9.69727 31.8691 9.17773V6.4707C31.6074 5.96289 31.1855 5.70898 30.6035 5.70898C30.1425 5.70898 29.787 5.89258 29.537 6.25977C29.287 6.62305 29.162 7.17188 29.162 7.90625ZM39.4063 11C39.3438 10.8789 39.2892 10.6816 39.2423 10.4082C38.7892 10.8809 38.2345 11.1172 37.5782 11.1172C36.9415 11.1172 36.422 10.9355 36.0196 10.5723C35.6173 10.209 35.4161 9.75977 35.4161 9.22461C35.4161 8.54883 35.6661 8.03125 36.1661 7.67188C36.67 7.30859 37.3888 7.12695 38.3224 7.12695H39.1954V6.71094C39.1954 6.38281 39.1036 6.12109 38.92 5.92578C38.7364 5.72656 38.4571 5.62695 38.0821 5.62695C37.7579 5.62695 37.4923 5.70898 37.2853 5.87305C37.0782 6.0332 36.9747 6.23828 36.9747 6.48828H35.5509C35.5509 6.14062 35.6661 5.81641 35.8966 5.51562C36.127 5.21094 36.4395 4.97266 36.8341 4.80078C37.2325 4.62891 37.6759 4.54297 38.1642 4.54297C38.9063 4.54297 39.4981 4.73047 39.9395 5.10547C40.381 5.47656 40.6075 6 40.6192 6.67578V9.53516C40.6192 10.1055 40.6993 10.5605 40.8595 10.9004V11H39.4063ZM37.8419 9.97461C38.1231 9.97461 38.3868 9.90625 38.6329 9.76953C38.8829 9.63281 39.0704 9.44922 39.1954 9.21875V8.02344H38.4278C37.9005 8.02344 37.504 8.11523 37.2384 8.29883C36.9728 8.48242 36.8399 8.74219 36.8399 9.07812C36.8399 9.35156 36.9298 9.57031 37.1095 9.73438C37.2931 9.89453 37.5372 9.97461 37.8419 9.97461ZM46.2698 5.96094C46.0823 5.92969 45.8889 5.91406 45.6897 5.91406C45.0374 5.91406 44.5979 6.16406 44.3713 6.66406V11H42.9475V4.66016H44.3069L44.342 5.36914C44.6858 4.81836 45.1624 4.54297 45.7717 4.54297C45.9749 4.54297 46.1428 4.57031 46.2756 4.625L46.2698 5.96094ZM53.684 9.03711L54.6918 4.66016H56.0805L54.352 11H53.1801L51.8207 6.64648L50.4848 11H49.3129L47.5785 4.66016H48.9672L49.9926 8.99023L51.2934 4.66016H52.3656L53.684 9.03711ZM59.3873 11H57.9635V4.66016H59.3873V11ZM57.8756 3.01367C57.8756 2.79492 57.9439 2.61328 58.0806 2.46875C58.2213 2.32422 58.4205 2.25195 58.6783 2.25195C58.9361 2.25195 59.1353 2.32422 59.276 2.46875C59.4166 2.61328 59.4869 2.79492 59.4869 3.01367C59.4869 3.22852 59.4166 3.4082 59.276 3.55273C59.1353 3.69336 58.9361 3.76367 58.6783 3.76367C58.4205 3.76367 58.2213 3.69336 58.0806 3.55273C57.9439 3.4082 57.8756 3.22852 57.8756 3.01367ZM63.1042 4.66016L63.1453 5.39258C63.614 4.82617 64.2292 4.54297 64.991 4.54297C66.3113 4.54297 66.9831 5.29883 67.0066 6.81055V11H65.5828V6.89258C65.5828 6.49023 65.4949 6.19336 65.3191 6.00195C65.1472 5.80664 64.864 5.70898 64.4695 5.70898C63.8953 5.70898 63.4675 5.96875 63.1863 6.48828V11H61.7624V4.66016H63.1042ZM72.8563 9.27734C72.8563 9.02344 72.7509 8.83008 72.5399 8.69727C72.3329 8.56445 71.9872 8.44727 71.5028 8.3457C71.0185 8.24414 70.6142 8.11523 70.2899 7.95898C69.579 7.61523 69.2235 7.11719 69.2235 6.46484C69.2235 5.91797 69.454 5.46094 69.9149 5.09375C70.3759 4.72656 70.9618 4.54297 71.6728 4.54297C72.4306 4.54297 73.0419 4.73047 73.5067 5.10547C73.9755 5.48047 74.2099 5.9668 74.2099 6.56445H72.786C72.786 6.29102 72.6845 6.06445 72.4813 5.88477C72.2782 5.70117 72.0087 5.60938 71.6728 5.60938C71.3603 5.60938 71.1044 5.68164 70.9052 5.82617C70.7099 5.9707 70.6122 6.16406 70.6122 6.40625C70.6122 6.625 70.704 6.79492 70.8876 6.91602C71.0712 7.03711 71.4423 7.16016 72.0009 7.28516C72.5595 7.40625 72.997 7.55273 73.3134 7.72461C73.6337 7.89258 73.87 8.0957 74.0224 8.33398C74.1786 8.57227 74.2567 8.86133 74.2567 9.20117C74.2567 9.77148 74.0204 10.2344 73.5478 10.5898C73.0751 10.9414 72.456 11.1172 71.6903 11.1172C71.1708 11.1172 70.7079 11.0234 70.3017 10.8359C69.8954 10.6484 69.579 10.3906 69.3524 10.0625C69.1259 9.73438 69.0126 9.38086 69.0126 9.00195H70.3954C70.4149 9.33789 70.5419 9.59766 70.7763 9.78125C71.0106 9.96094 71.3212 10.0508 71.7079 10.0508C72.0829 10.0508 72.3681 9.98047 72.5634 9.83984C72.7587 9.69531 72.8563 9.50781 72.8563 9.27734ZM78.126 3.11914V4.66016H79.2452V5.71484H78.126V9.25391C78.126 9.49609 78.1729 9.67188 78.2667 9.78125C78.3643 9.88672 78.5362 9.93945 78.7823 9.93945C78.9463 9.93945 79.1124 9.91992 79.2803 9.88086V10.9824C78.9561 11.0723 78.6436 11.1172 78.3428 11.1172C77.2491 11.1172 76.7022 10.5137 76.7022 9.30664V5.71484H75.6592V4.66016H76.7022V3.11914H78.126ZM80.7356 7.77148C80.7356 7.15039 80.8586 6.5918 81.1047 6.0957C81.3508 5.5957 81.6965 5.21289 82.1418 4.94727C82.5871 4.67773 83.0988 4.54297 83.677 4.54297C84.5324 4.54297 85.2258 4.81836 85.757 5.36914C86.2922 5.91992 86.5813 6.65039 86.6242 7.56055L86.6301 7.89453C86.6301 8.51953 86.509 9.07812 86.2668 9.57031C86.0285 10.0625 85.6848 10.4434 85.2356 10.7129C84.7903 10.9824 84.2746 11.1172 83.6887 11.1172C82.7942 11.1172 82.0774 10.8203 81.5383 10.2266C81.0031 9.62891 80.7356 8.83398 80.7356 7.8418V7.77148ZM82.1594 7.89453C82.1594 8.54688 82.2942 9.05859 82.5637 9.42969C82.8332 9.79688 83.2082 9.98047 83.6887 9.98047C84.1692 9.98047 84.5422 9.79297 84.8078 9.41797C85.0774 9.04297 85.2121 8.49414 85.2121 7.77148C85.2121 7.13086 85.0735 6.62305 84.7961 6.24805C84.5227 5.87305 84.1496 5.68555 83.677 5.68555C83.2121 5.68555 82.843 5.87109 82.5695 6.24219C82.2961 6.60938 82.1594 7.16016 82.1594 7.89453ZM91.9935 5.96094C91.806 5.92969 91.6127 5.91406 91.4135 5.91406C90.7611 5.91406 90.3217 6.16406 90.0951 6.66406V11H88.6713V4.66016H90.0306L90.0658 5.36914C90.4095 4.81836 90.8861 4.54297 91.4955 4.54297C91.6986 4.54297 91.8666 4.57031 91.9994 4.625L91.9935 5.96094ZM96.0562 8.96094L97.3453 4.66016H98.8628L96.3433 11.9609C95.9566 13.0273 95.3003 13.5605 94.3745 13.5605C94.1675 13.5605 93.939 13.5254 93.689 13.4551V12.3535L93.9585 12.3711C94.3179 12.3711 94.5874 12.3047 94.7671 12.1719C94.9507 12.043 95.0953 11.8242 95.2007 11.5156L95.4058 10.9707L93.1792 4.66016H94.7144L96.0562 8.96094Z" fill="black"/>
<path d="M31.9628 16.1094H30.1894V21H29.2089V16.1094H27.4511V15.3125H31.9628V16.1094ZM35.6027 18.8086H34.5011V21H33.5128V15.3125H35.5128C36.1691 15.3125 36.6756 15.4596 37.0324 15.7539C37.3891 16.0482 37.5675 16.474 37.5675 17.0312C37.5675 17.4115 37.4751 17.7305 37.2902 17.9883C37.1079 18.2435 36.8527 18.4401 36.5245 18.5781L37.8019 20.9492V21H36.7433L35.6027 18.8086ZM34.5011 18.0156H35.5167C35.8501 18.0156 36.1105 17.9323 36.298 17.7656C36.4855 17.5964 36.5792 17.3659 36.5792 17.0742C36.5792 16.7695 36.492 16.5339 36.3175 16.3672C36.1456 16.2005 35.8878 16.1146 35.5441 16.1094H34.5011V18.0156ZM42.4886 19.6758H40.2855L39.8245 21H38.7972L40.9456 15.3125H41.8324L43.9847 21H42.9535L42.4886 19.6758ZM40.5628 18.8789H42.2113L41.387 16.5195L40.5628 18.8789ZM47.1324 19.7617L48.5777 15.3125H49.6636L47.6167 21H46.6597L44.6206 15.3125H45.7027L47.1324 19.7617ZM54.4324 18.4609H52.0964V20.2109H54.8269V21H51.1081V15.3125H54.7995V16.1094H52.0964V17.6797H54.4324V18.4609ZM57.4199 20.2109H60.0019V21H56.4316V15.3125H57.4199V20.2109ZM67.5355 19.6758H65.3324L64.8714 21H63.8441L65.9925 15.3125H66.8792L69.0316 21H68.0003L67.5355 19.6758ZM65.6097 18.8789H67.2581L66.4339 16.5195L65.6097 18.8789ZM74.7535 20.2617C74.5477 20.5299 74.2626 20.7331 73.898 20.8711C73.5334 21.0091 73.1193 21.0781 72.6558 21.0781C72.1792 21.0781 71.7574 20.9701 71.3902 20.7539C71.023 20.5378 70.7391 20.2292 70.5386 19.8281C70.3407 19.4245 70.2378 18.9544 70.23 18.418V17.9727C70.23 17.1133 70.4357 16.4427 70.8472 15.9609C71.2587 15.4766 71.8329 15.2344 72.5699 15.2344C73.2027 15.2344 73.7053 15.3906 74.0777 15.7031C74.4501 16.0156 74.674 16.4661 74.7495 17.0547H73.7808C73.6714 16.3698 73.2743 16.0273 72.5894 16.0273C72.1467 16.0273 71.8094 16.1875 71.5777 16.5078C71.3485 16.8255 71.23 17.293 71.2222 17.9102V18.3477C71.2222 18.9622 71.3511 19.4401 71.6089 19.7812C71.8693 20.1198 72.23 20.2891 72.691 20.2891C73.1962 20.2891 73.5555 20.1745 73.7691 19.9453V18.832H72.5972V18.082H74.7535V20.2617ZM79.9636 18.4609H77.6277V20.2109H80.3581V21H76.6394V15.3125H80.3308V16.1094H77.6277V17.6797H79.9636V18.4609ZM86.4745 21H85.4863L82.9511 16.9648V21H81.9628V15.3125H82.9511L85.4941 19.3633V15.3125H86.4745V21ZM92.7824 19.1484C92.7251 19.7552 92.5011 20.2292 92.1105 20.5703C91.7199 20.9089 91.2003 21.0781 90.5519 21.0781C90.0988 21.0781 89.699 20.9714 89.3527 20.7578C89.0089 20.5417 88.7433 20.2357 88.5558 19.8398C88.3683 19.444 88.2706 18.9844 88.2628 18.4609V17.9297C88.2628 17.3932 88.3579 16.9206 88.548 16.5117C88.7381 16.1029 89.0102 15.7878 89.3644 15.5664C89.7212 15.3451 90.1326 15.2344 90.5988 15.2344C91.2264 15.2344 91.7316 15.4049 92.1144 15.7461C92.4972 16.0872 92.7199 16.569 92.7824 17.1914H91.798C91.7511 16.7826 91.6313 16.4883 91.4386 16.3086C91.2485 16.1263 90.9686 16.0352 90.5988 16.0352C90.1691 16.0352 89.8383 16.1927 89.6066 16.5078C89.3774 16.8203 89.2602 17.2799 89.255 17.8867V18.3906C89.255 19.0052 89.3644 19.474 89.5831 19.7969C89.8045 20.1198 90.1274 20.2812 90.5519 20.2812C90.9399 20.2812 91.2316 20.194 91.4269 20.0195C91.6222 19.8451 91.7459 19.5547 91.798 19.1484H92.7824ZM96.3245 18.0078L97.6331 15.3125H98.7269L96.8206 18.9062V21H95.8285V18.9062L93.9183 15.3125H95.016L96.3245 18.0078Z" fill="black" fill-opacity="0.7"/>
<path d="M20.7265 7.78405L7.69276 19.9572C7.68593 19.9636 7.67738 19.97 7.66884 19.9732C7.58338 20.0498 7.48425 20.1073 7.37999 20.1472C7.26377 20.1919 7.14243 20.2142 7.01937 20.2142C6.89631 20.2142 6.77497 20.1919 6.65874 20.1472C6.55107 20.1057 6.44852 20.0434 6.35965 19.962L4.64198 18.3593C4.58387 18.3051 4.5514 18.2348 4.54285 18.1598C4.53601 18.0896 4.5531 18.0161 4.59412 17.9523L4.59925 17.9443C4.70009 17.8022 4.77016 17.6474 4.81118 17.4862C4.85391 17.3234 4.86587 17.1542 4.84878 16.9865V16.9849C4.82998 16.8205 4.78213 16.6577 4.70522 16.5045C4.63172 16.3592 4.52918 16.2203 4.39928 16.099C4.26939 15.9777 4.12241 15.8819 3.96517 15.8133C3.80109 15.7399 3.62676 15.6952 3.45072 15.6792C3.2781 15.6632 3.09864 15.6744 2.92602 15.7127C2.75682 15.751 2.59445 15.8149 2.44576 15.9043C2.37568 15.9538 2.29364 15.9745 2.21161 15.9681C2.12957 15.9633 2.04753 15.9298 1.986 15.8723L0.275169 14.2729C0.184585 14.1883 0.11793 14.0909 0.0717832 13.9888C0.0239277 13.8818 0 13.7669 0 13.6519C0 13.537 0.0239277 13.4221 0.0717832 13.3151C0.11622 13.213 0.182876 13.1188 0.270041 13.0358L13.3089 0.856243C13.3995 0.77164 13.5038 0.709386 13.6132 0.666286C13.7294 0.621591 13.8524 0.599243 13.9755 0.599243C14.0986 0.599243 14.2216 0.621591 14.3361 0.666286C14.4472 0.709386 14.5515 0.77164 14.6404 0.856243L16.3649 2.46688C16.4195 2.51796 16.4537 2.5866 16.4623 2.65843C16.4708 2.72707 16.4571 2.8005 16.4178 2.86435L16.4144 2.86914C16.3221 3.00801 16.2572 3.15806 16.2196 3.3145C16.182 3.47412 16.1734 3.64014 16.1939 3.80136V3.80296C16.2145 3.96258 16.264 4.11902 16.3426 4.26747C16.4161 4.40794 16.517 4.54203 16.6452 4.66175V4.66335C16.7699 4.78307 16.9118 4.87565 17.0622 4.94588C17.2194 5.01772 17.3903 5.06401 17.563 5.08316C17.7322 5.10232 17.9048 5.09593 18.074 5.06241C18.2398 5.03049 18.4021 4.97302 18.5508 4.89002C18.6209 4.84851 18.7029 4.82936 18.785 4.83574C18.8636 4.84213 18.9405 4.87246 19.0003 4.92992L20.7248 6.54056C20.8154 6.62516 20.8821 6.72253 20.9282 6.82469C20.9761 6.93324 21 7.04817 21 7.16151C21 7.27644 20.9761 7.39137 20.9282 7.49832C20.8838 7.59888 20.8171 7.69466 20.73 7.77767L20.7265 7.78405ZM3.35672 11.0867L9.7796 17.0855L17.6484 9.73629L11.2255 3.73751L3.35672 11.0867ZM9.28909 17.542L2.8662 11.5449L0.775942 13.4971C0.753723 13.5179 0.736632 13.5418 0.726377 13.5689C0.714414 13.5977 0.707577 13.628 0.707577 13.6567C0.707577 13.6887 0.712704 13.7174 0.724668 13.7445C0.736632 13.7701 0.753723 13.7956 0.775942 13.8164L2.30048 15.2402C2.48165 15.1572 2.67307 15.0982 2.8662 15.063C3.08326 15.0247 3.30374 15.0152 3.5225 15.0359C3.77887 15.0583 4.03011 15.1205 4.26426 15.2243C4.49499 15.3264 4.70864 15.4653 4.89835 15.6425C5.08464 15.8165 5.23163 16.016 5.3393 16.2283C5.4521 16.4502 5.52047 16.688 5.54781 16.9275C5.57003 17.1318 5.56149 17.3393 5.51876 17.5405C5.48116 17.7224 5.41792 17.8996 5.32905 18.0688L6.85358 19.4927C6.8758 19.5134 6.90144 19.5294 6.9305 19.539C6.96126 19.5502 6.99373 19.5565 7.0245 19.5565C7.05697 19.5565 7.08944 19.5502 7.1185 19.539C7.14585 19.5278 7.17319 19.5118 7.19541 19.4911L9.28909 17.542ZM11.716 3.27938L18.1389 9.27816L20.2326 7.32273C20.2411 7.31475 20.2497 7.30996 20.2599 7.30677C20.2719 7.2908 20.2822 7.27484 20.289 7.25728C20.301 7.22855 20.3078 7.19822 20.3078 7.16949C20.3078 7.13916 20.3027 7.11043 20.2907 7.08489L20.289 7.08169C20.2787 7.05615 20.2617 7.03381 20.2411 7.01305L18.6978 5.57162C18.5166 5.64665 18.3286 5.69932 18.1355 5.72965C17.9236 5.76158 17.7082 5.76637 17.4929 5.74242C17.2416 5.71529 16.9989 5.64984 16.7699 5.54608C16.5477 5.44552 16.3409 5.30983 16.1563 5.13744C15.9718 4.96504 15.8265 4.77189 15.7188 4.56438C15.6077 4.34888 15.5359 4.12061 15.5069 3.88756C15.4812 3.68802 15.4864 3.48689 15.5205 3.28896C15.553 3.10858 15.6094 2.93299 15.6898 2.76378L14.1498 1.32555C14.1293 1.30639 14.1037 1.29043 14.0763 1.27925L14.0729 1.27766C14.0422 1.26648 14.0097 1.2601 13.9789 1.2601C13.9447 1.2601 13.914 1.26489 13.8849 1.27606C13.8576 1.28724 13.8302 1.3032 13.808 1.32395L11.716 3.27938Z" fill="black"/>
<path d="M9.35064 13.1172C9.5489 12.9321 9.64119 12.7421 9.67366 12.541C9.70272 12.3558 9.68392 12.1643 9.65486 11.9536L10.5026 11.1618L11.4324 13.4205C11.4494 13.4604 11.499 13.4812 11.5417 13.4652C11.552 13.4604 11.5622 13.4557 11.5708 13.4477C11.7605 13.2721 11.9092 13.1667 12.022 13.0869L12.0223 13.0867C12.3416 12.8618 12.4031 12.8185 12.2561 12.2074L12.6458 11.8434C12.6783 11.8131 12.6783 11.762 12.6458 11.7317L12.2527 11.3645C12.2203 11.3342 12.1656 11.3342 12.1331 11.3645L12.063 11.43L11.9998 11.1746L12.4407 10.7627C12.4732 10.7324 12.4732 10.6813 12.4407 10.651L12.0476 10.2839C12.0152 10.2535 11.9605 10.2535 11.928 10.2839L11.8066 10.3972L11.7144 10.0285L12.6817 9.12497C12.7706 9.04037 12.8048 8.92065 12.786 8.79614C12.7689 8.67802 12.7039 8.55511 12.598 8.45614L12.5963 8.45454C12.4903 8.35717 12.3604 8.29651 12.2356 8.28055C12.1023 8.26299 11.9741 8.29332 11.8836 8.37792L10.9162 9.28141L10.5163 9.19521L10.6393 9.08028C10.6718 9.04995 10.6718 8.99887 10.6393 8.96854L10.2462 8.6014C10.2137 8.57107 10.1591 8.57107 10.1266 8.6014L9.68392 9.01483L9.41046 8.95577L9.48224 8.88873C9.51471 8.8584 9.51471 8.80732 9.48224 8.77699L9.08914 8.40984C9.05667 8.37952 9.00198 8.37952 8.9695 8.40984L8.57811 8.77539C7.92585 8.63505 7.88941 8.67794 7.62689 8.98681L7.62613 8.98769C7.53897 9.08986 7.42275 9.22554 7.23645 9.39953C7.20398 9.42986 7.20398 9.48094 7.23645 9.51127C7.24671 9.52085 7.25867 9.52723 7.27234 9.53043L9.70443 10.4132L8.86354 11.1985C8.63622 11.157 8.43968 11.1315 8.24484 11.1586C8.0329 11.189 7.83123 11.2815 7.60904 11.4891C7.57657 11.5194 7.57657 11.5705 7.60904 11.6008L8.05341 12.0222C8.06709 12.0366 8.08418 12.0446 8.10298 12.0461C8.19527 12.0557 8.28414 12.0653 8.36106 12.0717L8.47215 12.0829C8.4824 12.1004 8.49437 12.1164 8.50633 12.1323L8.50975 12.1371C8.53026 12.1643 8.55248 12.1882 8.57811 12.2122L8.58324 12.2169C8.6123 12.2425 8.64306 12.2664 8.67383 12.2872C8.69433 12.3 8.71484 12.3127 8.73706 12.3239L8.74903 12.4117C8.76099 12.4899 8.77466 12.5857 8.79346 12.6974C8.79688 12.7134 8.80543 12.7294 8.81739 12.7405L9.22929 13.1188C9.24638 13.1332 9.26689 13.1412 9.28911 13.1412C9.31304 13.1412 9.33526 13.1316 9.35064 13.1172Z" fill="black"/>
</svg>
