<svg width="107" height="23" viewBox="0 0 107 23" fill="none" xmlns="http://www.w3.org/2000/svg">
<path d="M30.0644 8.28125L29.4316 8.93164V11H28.0078V2H29.4316V7.19141L29.8769 6.63477L31.6288 4.66016H33.3398L30.9843 7.30273L33.5917 11H31.9453L30.0644 8.28125ZM39.7952 10.3789C39.3772 10.8711 38.7835 11.1172 38.0139 11.1172C37.3264 11.1172 36.8049 10.916 36.4495 10.5137C36.0979 10.1113 35.9221 9.5293 35.9221 8.76758V4.66016H37.346V8.75C37.346 9.55469 37.6799 9.95703 38.3479 9.95703C39.0393 9.95703 39.5061 9.70898 39.7483 9.21289V4.66016H41.1721V11H39.8303L39.7952 10.3789ZM45.817 11H44.3931V4.66016H45.817V11ZM44.3053 3.01367C44.3053 2.79492 44.3736 2.61328 44.5103 2.46875C44.651 2.32422 44.8502 2.25195 45.108 2.25195C45.3658 2.25195 45.565 2.32422 45.7056 2.46875C45.8463 2.61328 45.9166 2.79492 45.9166 3.01367C45.9166 3.22852 45.8463 3.4082 45.7056 3.55273C45.565 3.69336 45.3658 3.76367 45.108 3.76367C44.8502 3.76367 44.651 3.69336 44.5103 3.55273C44.3736 3.4082 44.3053 3.22852 44.3053 3.01367ZM50.3739 4.66016L50.4149 5.39258C50.8837 4.82617 51.4989 4.54297 52.2606 4.54297C53.581 4.54297 54.2528 5.29883 54.2763 6.81055V11H52.8524V6.89258C52.8524 6.49023 52.7645 6.19336 52.5888 6.00195C52.4169 5.80664 52.1337 5.70898 51.7392 5.70898C51.1649 5.70898 50.7372 5.96875 50.456 6.48828V11H49.0321V4.66016H50.3739ZM57.1457 7.77148C57.1457 7.15039 57.2688 6.5918 57.5149 6.0957C57.761 5.5957 58.1067 5.21289 58.552 4.94727C58.9973 4.67773 59.509 4.54297 60.0871 4.54297C60.9426 4.54297 61.636 4.81836 62.1672 5.36914C62.7024 5.91992 62.9914 6.65039 63.0344 7.56055L63.0403 7.89453C63.0403 8.51953 62.9192 9.07812 62.677 9.57031C62.4387 10.0625 62.0949 10.4434 61.6457 10.7129C61.2004 10.9824 60.6848 11.1172 60.0988 11.1172C59.2043 11.1172 58.4875 10.8203 57.9485 10.2266C57.4133 9.62891 57.1457 8.83398 57.1457 7.8418V7.77148ZM58.5695 7.89453C58.5695 8.54688 58.7043 9.05859 58.9738 9.42969C59.2434 9.79688 59.6184 9.98047 60.0988 9.98047C60.5793 9.98047 60.9524 9.79297 61.218 9.41797C61.4875 9.04297 61.6223 8.49414 61.6223 7.77148C61.6223 7.13086 61.4836 6.62305 61.2063 6.24805C60.9328 5.87305 60.5598 5.68555 60.0871 5.68555C59.6223 5.68555 59.2531 5.87109 58.9797 6.24219C58.7063 6.60938 58.5695 7.16016 58.5695 7.89453ZM69.7124 11C69.6499 10.8789 69.5953 10.6816 69.5484 10.4082C69.0953 10.8809 68.5406 11.1172 67.8843 11.1172C67.2476 11.1172 66.7281 10.9355 66.3257 10.5723C65.9234 10.209 65.7222 9.75977 65.7222 9.22461C65.7222 8.54883 65.9722 8.03125 66.4722 7.67188C66.9761 7.30859 67.6949 7.12695 68.6285 7.12695H69.5015V6.71094C69.5015 6.38281 69.4097 6.12109 69.2261 5.92578C69.0425 5.72656 68.7632 5.62695 68.3882 5.62695C68.064 5.62695 67.7984 5.70898 67.5913 5.87305C67.3843 6.0332 67.2808 6.23828 67.2808 6.48828H65.857C65.857 6.14062 65.9722 5.81641 66.2027 5.51562C66.4331 5.21094 66.7456 4.97266 67.1402 4.80078C67.5386 4.62891 67.982 4.54297 68.4703 4.54297C69.2124 4.54297 69.8042 4.73047 70.2456 5.10547C70.687 5.47656 70.9136 6 70.9253 6.67578V9.53516C70.9253 10.1055 71.0054 10.5605 71.1656 10.9004V11H69.7124ZM68.148 9.97461C68.4292 9.97461 68.6929 9.90625 68.939 9.76953C69.189 9.63281 69.3765 9.44922 69.5015 9.21875V8.02344H68.7339C68.2066 8.02344 67.8101 8.11523 67.5445 8.29883C67.2788 8.48242 67.146 8.74219 67.146 9.07812C67.146 9.35156 67.2359 9.57031 67.4156 9.73438C67.5992 9.89453 67.8433 9.97461 68.148 9.97461ZM74.9842 9.5C75.2499 9.5 75.4549 9.57617 75.5995 9.72852C75.744 9.87695 75.8163 10.0645 75.8163 10.291C75.8163 10.5137 75.744 10.6992 75.5995 10.8477C75.4549 10.9922 75.2499 11.0645 74.9842 11.0645C74.7303 11.0645 74.5292 10.9922 74.3807 10.8477C74.2323 10.7031 74.1581 10.5176 74.1581 10.291C74.1581 10.0645 74.2303 9.87695 74.3749 9.72852C74.5194 9.57617 74.7225 9.5 74.9842 9.5ZM81.7326 9.98047C82.0881 9.98047 82.383 9.87695 82.6174 9.66992C82.8517 9.46289 82.9767 9.20703 82.9924 8.90234H84.3342C84.3185 9.29688 84.1955 9.66602 83.965 10.0098C83.7345 10.3496 83.422 10.6191 83.0275 10.8184C82.633 11.0176 82.2072 11.1172 81.7502 11.1172C80.8635 11.1172 80.1603 10.8301 79.6408 10.2559C79.1213 9.68164 78.8615 8.88867 78.8615 7.87695V7.73047C78.8615 6.76562 79.1193 5.99414 79.6349 5.41602C80.1506 4.83398 80.8537 4.54297 81.7443 4.54297C82.4982 4.54297 83.1115 4.76367 83.5842 5.20508C84.0607 5.64258 84.3107 6.21875 84.3342 6.93359H82.9924C82.9767 6.57031 82.8517 6.27148 82.6174 6.03711C82.3869 5.80273 82.092 5.68555 81.7326 5.68555C81.2717 5.68555 80.9162 5.85352 80.6662 6.18945C80.4162 6.52148 80.2892 7.02734 80.2853 7.70703V7.93555C80.2853 8.62305 80.4084 9.13672 80.6545 9.47656C80.9045 9.8125 81.2638 9.98047 81.7326 9.98047ZM86.8228 7.77148C86.8228 7.15039 86.9458 6.5918 87.1919 6.0957C87.438 5.5957 87.7837 5.21289 88.229 4.94727C88.6743 4.67773 89.186 4.54297 89.7642 4.54297C90.6196 4.54297 91.313 4.81836 91.8442 5.36914C92.3794 5.91992 92.6685 6.65039 92.7114 7.56055L92.7173 7.89453C92.7173 8.51953 92.5962 9.07812 92.354 9.57031C92.1157 10.0625 91.772 10.4434 91.3228 10.7129C90.8774 10.9824 90.3618 11.1172 89.7759 11.1172C88.8813 11.1172 88.1645 10.8203 87.6255 10.2266C87.0903 9.62891 86.8228 8.83398 86.8228 7.8418V7.77148ZM88.2466 7.89453C88.2466 8.54688 88.3813 9.05859 88.6509 9.42969C88.9204 9.79688 89.2954 9.98047 89.7759 9.98047C90.2563 9.98047 90.6294 9.79297 90.895 9.41797C91.1645 9.04297 91.2993 8.49414 91.2993 7.77148C91.2993 7.13086 91.1606 6.62305 90.8833 6.24805C90.6099 5.87305 90.2368 5.68555 89.7642 5.68555C89.2993 5.68555 88.9302 5.87109 88.6567 6.24219C88.3833 6.60938 88.2466 7.16016 88.2466 7.89453ZM96.9403 4.66016L96.9813 5.32227C97.4266 4.80273 98.036 4.54297 98.8094 4.54297C99.6571 4.54297 100.237 4.86719 100.55 5.51562C101.011 4.86719 101.659 4.54297 102.495 4.54297C103.194 4.54297 103.714 4.73633 104.054 5.12305C104.397 5.50977 104.573 6.08008 104.581 6.83398V11H103.157V6.875C103.157 6.47266 103.069 6.17773 102.893 5.99023C102.718 5.80273 102.427 5.70898 102.02 5.70898C101.696 5.70898 101.43 5.79688 101.223 5.97266C101.02 6.14453 100.878 6.37109 100.796 6.65234L100.802 11H99.3778V6.82812C99.3582 6.08203 98.9774 5.70898 98.2352 5.70898C97.6649 5.70898 97.2606 5.94141 97.0223 6.40625V11H95.5985V4.66016H96.9403Z" fill="white"/>
<path d="M31.9628 16.1094H30.1894V21H29.2089V16.1094H27.4511V15.3125H31.9628V16.1094ZM35.6027 18.8086H34.5011V21H33.5128V15.3125H35.5128C36.1691 15.3125 36.6756 15.4596 37.0324 15.7539C37.3891 16.0482 37.5675 16.474 37.5675 17.0312C37.5675 17.4115 37.4751 17.7305 37.2902 17.9883C37.1079 18.2435 36.8527 18.4401 36.5245 18.5781L37.8019 20.9492V21H36.7433L35.6027 18.8086ZM34.5011 18.0156H35.5167C35.8501 18.0156 36.1105 17.9323 36.298 17.7656C36.4855 17.5964 36.5792 17.3659 36.5792 17.0742C36.5792 16.7695 36.492 16.5339 36.3175 16.3672C36.1456 16.2005 35.8878 16.1146 35.5441 16.1094H34.5011V18.0156ZM42.4886 19.6758H40.2855L39.8245 21H38.7972L40.9456 15.3125H41.8324L43.9847 21H42.9535L42.4886 19.6758ZM40.5628 18.8789H42.2113L41.387 16.5195L40.5628 18.8789ZM47.1324 19.7617L48.5777 15.3125H49.6636L47.6167 21H46.6597L44.6206 15.3125H45.7027L47.1324 19.7617ZM54.4324 18.4609H52.0964V20.2109H54.8269V21H51.1081V15.3125H54.7995V16.1094H52.0964V17.6797H54.4324V18.4609ZM57.4199 20.2109H60.0019V21H56.4316V15.3125H57.4199V20.2109ZM67.5355 19.6758H65.3324L64.8714 21H63.8441L65.9925 15.3125H66.8792L69.0316 21H68.0003L67.5355 19.6758ZM65.6097 18.8789H67.2581L66.4339 16.5195L65.6097 18.8789ZM74.7535 20.2617C74.5477 20.5299 74.2626 20.7331 73.898 20.8711C73.5334 21.0091 73.1193 21.0781 72.6558 21.0781C72.1792 21.0781 71.7574 20.9701 71.3902 20.7539C71.023 20.5378 70.7391 20.2292 70.5386 19.8281C70.3407 19.4245 70.2378 18.9544 70.23 18.418V17.9727C70.23 17.1133 70.4357 16.4427 70.8472 15.9609C71.2587 15.4766 71.8329 15.2344 72.5699 15.2344C73.2027 15.2344 73.7053 15.3906 74.0777 15.7031C74.4501 16.0156 74.674 16.4661 74.7495 17.0547H73.7808C73.6714 16.3698 73.2743 16.0273 72.5894 16.0273C72.1467 16.0273 71.8094 16.1875 71.5777 16.5078C71.3485 16.8255 71.23 17.293 71.2222 17.9102V18.3477C71.2222 18.9622 71.3511 19.4401 71.6089 19.7812C71.8693 20.1198 72.23 20.2891 72.691 20.2891C73.1962 20.2891 73.5555 20.1745 73.7691 19.9453V18.832H72.5972V18.082H74.7535V20.2617ZM79.9636 18.4609H77.6277V20.2109H80.3581V21H76.6394V15.3125H80.3308V16.1094H77.6277V17.6797H79.9636V18.4609ZM86.4745 21H85.4863L82.9511 16.9648V21H81.9628V15.3125H82.9511L85.4941 19.3633V15.3125H86.4745V21ZM92.7824 19.1484C92.7251 19.7552 92.5011 20.2292 92.1105 20.5703C91.7199 20.9089 91.2003 21.0781 90.5519 21.0781C90.0988 21.0781 89.699 20.9714 89.3527 20.7578C89.0089 20.5417 88.7433 20.2357 88.5558 19.8398C88.3683 19.444 88.2706 18.9844 88.2628 18.4609V17.9297C88.2628 17.3932 88.3579 16.9206 88.548 16.5117C88.7381 16.1029 89.0102 15.7878 89.3644 15.5664C89.7212 15.3451 90.1326 15.2344 90.5988 15.2344C91.2264 15.2344 91.7316 15.4049 92.1144 15.7461C92.4972 16.0872 92.7199 16.569 92.7824 17.1914H91.798C91.7511 16.7826 91.6313 16.4883 91.4386 16.3086C91.2485 16.1263 90.9686 16.0352 90.5988 16.0352C90.1691 16.0352 89.8383 16.1927 89.6066 16.5078C89.3774 16.8203 89.2602 17.2799 89.255 17.8867V18.3906C89.255 19.0052 89.3644 19.474 89.5831 19.7969C89.8045 20.1198 90.1274 20.2812 90.5519 20.2812C90.9399 20.2812 91.2316 20.194 91.4269 20.0195C91.6222 19.8451 91.7459 19.5547 91.798 19.1484H92.7824ZM96.3245 18.0078L97.6331 15.3125H98.7269L96.8206 18.9062V21H95.8285V18.9062L93.9183 15.3125H95.016L96.3245 18.0078Z" fill="white" fill-opacity="0.7"/>
<path d="M20.7265 7.78405L7.69276 19.9572C7.68593 19.9636 7.67738 19.97 7.66884 19.9732C7.58338 20.0498 7.48425 20.1073 7.37999 20.1472C7.26377 20.1919 7.14243 20.2142 7.01937 20.2142C6.89631 20.2142 6.77497 20.1919 6.65874 20.1472C6.55107 20.1057 6.44852 20.0434 6.35965 19.962L4.64198 18.3593C4.58387 18.3051 4.5514 18.2348 4.54285 18.1598C4.53601 18.0896 4.5531 18.0161 4.59412 17.9523L4.59925 17.9443C4.70009 17.8022 4.77016 17.6474 4.81118 17.4862C4.85391 17.3234 4.86587 17.1542 4.84878 16.9865V16.9849C4.82998 16.8205 4.78213 16.6577 4.70522 16.5045C4.63172 16.3592 4.52918 16.2203 4.39928 16.099C4.26939 15.9777 4.12241 15.8819 3.96517 15.8133C3.80109 15.7399 3.62676 15.6952 3.45072 15.6792C3.2781 15.6632 3.09864 15.6744 2.92602 15.7127C2.75682 15.751 2.59445 15.8149 2.44576 15.9043C2.37568 15.9538 2.29364 15.9745 2.21161 15.9681C2.12957 15.9633 2.04753 15.9298 1.986 15.8723L0.275169 14.2729C0.184585 14.1883 0.11793 14.0909 0.0717832 13.9888C0.0239277 13.8818 0 13.7669 0 13.6519C0 13.537 0.0239277 13.4221 0.0717832 13.3151C0.11622 13.213 0.182876 13.1188 0.270041 13.0358L13.3089 0.856243C13.3995 0.77164 13.5038 0.709386 13.6132 0.666286C13.7294 0.621591 13.8524 0.599243 13.9755 0.599243C14.0986 0.599243 14.2216 0.621591 14.3361 0.666286C14.4472 0.709386 14.5515 0.77164 14.6404 0.856243L16.3649 2.46688C16.4195 2.51796 16.4537 2.5866 16.4623 2.65843C16.4708 2.72707 16.4571 2.8005 16.4178 2.86435L16.4144 2.86914C16.3221 3.00801 16.2572 3.15806 16.2196 3.3145C16.182 3.47412 16.1734 3.64014 16.1939 3.80136V3.80296C16.2145 3.96258 16.264 4.11902 16.3426 4.26747C16.4161 4.40794 16.517 4.54203 16.6452 4.66175V4.66335C16.7699 4.78307 16.9118 4.87565 17.0622 4.94588C17.2194 5.01772 17.3903 5.06401 17.563 5.08316C17.7322 5.10232 17.9048 5.09593 18.074 5.06241C18.2398 5.03049 18.4021 4.97302 18.5508 4.89002C18.6209 4.84851 18.7029 4.82936 18.785 4.83574C18.8636 4.84213 18.9405 4.87246 19.0003 4.92992L20.7248 6.54056C20.8154 6.62516 20.8821 6.72253 20.9282 6.82469C20.9761 6.93324 21 7.04817 21 7.16151C21 7.27644 20.9761 7.39137 20.9282 7.49832C20.8838 7.59888 20.8171 7.69466 20.73 7.77767L20.7265 7.78405ZM3.35672 11.0867L9.7796 17.0855L17.6484 9.73629L11.2255 3.73751L3.35672 11.0867ZM9.28909 17.542L2.8662 11.5449L0.775942 13.4971C0.753723 13.5179 0.736632 13.5418 0.726377 13.5689C0.714414 13.5977 0.707577 13.628 0.707577 13.6567C0.707577 13.6887 0.712704 13.7174 0.724668 13.7445C0.736632 13.7701 0.753723 13.7956 0.775942 13.8164L2.30048 15.2402C2.48165 15.1572 2.67307 15.0982 2.8662 15.063C3.08326 15.0247 3.30374 15.0152 3.5225 15.0359C3.77887 15.0583 4.03011 15.1205 4.26426 15.2243C4.49499 15.3264 4.70864 15.4653 4.89835 15.6425C5.08464 15.8165 5.23163 16.016 5.3393 16.2283C5.4521 16.4502 5.52047 16.688 5.54781 16.9275C5.57003 17.1318 5.56149 17.3393 5.51876 17.5405C5.48116 17.7224 5.41792 17.8996 5.32905 18.0688L6.85358 19.4927C6.8758 19.5134 6.90144 19.5294 6.9305 19.539C6.96126 19.5502 6.99373 19.5565 7.0245 19.5565C7.05697 19.5565 7.08944 19.5502 7.1185 19.539C7.14585 19.5278 7.17319 19.5118 7.19541 19.4911L9.28909 17.542ZM11.716 3.27938L18.1389 9.27816L20.2326 7.32273C20.2411 7.31475 20.2497 7.30996 20.2599 7.30677C20.2719 7.2908 20.2822 7.27484 20.289 7.25728C20.301 7.22855 20.3078 7.19822 20.3078 7.16949C20.3078 7.13916 20.3027 7.11043 20.2907 7.08489L20.289 7.08169C20.2787 7.05615 20.2617 7.03381 20.2411 7.01305L18.6978 5.57162C18.5166 5.64665 18.3286 5.69932 18.1355 5.72965C17.9236 5.76158 17.7082 5.76637 17.4929 5.74242C17.2416 5.71529 16.9989 5.64984 16.7699 5.54608C16.5477 5.44552 16.3409 5.30983 16.1563 5.13744C15.9718 4.96504 15.8265 4.77189 15.7188 4.56438C15.6077 4.34888 15.5359 4.12061 15.5069 3.88756C15.4812 3.68802 15.4864 3.48689 15.5205 3.28896C15.553 3.10858 15.6094 2.93299 15.6898 2.76378L14.1498 1.32555C14.1293 1.30639 14.1037 1.29043 14.0763 1.27925L14.0729 1.27766C14.0422 1.26648 14.0097 1.2601 13.9789 1.2601C13.9447 1.2601 13.914 1.26489 13.8849 1.27606C13.8576 1.28724 13.8302 1.3032 13.808 1.32395L11.716 3.27938Z" fill="white"/>
<path d="M9.35064 13.1172C9.5489 12.9321 9.64119 12.7421 9.67366 12.541C9.70272 12.3558 9.68392 12.1643 9.65486 11.9536L10.5026 11.1618L11.4324 13.4205C11.4494 13.4604 11.499 13.4812 11.5417 13.4652C11.552 13.4604 11.5622 13.4557 11.5708 13.4477C11.7605 13.2721 11.9092 13.1667 12.022 13.0869L12.0223 13.0867C12.3416 12.8618 12.4031 12.8185 12.2561 12.2074L12.6458 11.8434C12.6783 11.8131 12.6783 11.762 12.6458 11.7317L12.2527 11.3645C12.2203 11.3342 12.1656 11.3342 12.1331 11.3645L12.063 11.43L11.9998 11.1746L12.4407 10.7627C12.4732 10.7324 12.4732 10.6813 12.4407 10.651L12.0476 10.2839C12.0152 10.2535 11.9605 10.2535 11.928 10.2839L11.8066 10.3972L11.7144 10.0285L12.6817 9.12497C12.7706 9.04037 12.8048 8.92065 12.786 8.79614C12.7689 8.67802 12.7039 8.55511 12.598 8.45614L12.5963 8.45454C12.4903 8.35717 12.3604 8.29651 12.2356 8.28055C12.1023 8.26299 11.9741 8.29332 11.8836 8.37792L10.9162 9.28141L10.5163 9.19521L10.6393 9.08028C10.6718 9.04995 10.6718 8.99887 10.6393 8.96854L10.2462 8.6014C10.2137 8.57107 10.1591 8.57107 10.1266 8.6014L9.68392 9.01483L9.41046 8.95577L9.48224 8.88873C9.51471 8.8584 9.51471 8.80732 9.48224 8.77699L9.08914 8.40984C9.05667 8.37952 9.00198 8.37952 8.9695 8.40984L8.57811 8.77539C7.92585 8.63505 7.88941 8.67794 7.62689 8.98681L7.62613 8.98769C7.53897 9.08986 7.42275 9.22554 7.23645 9.39953C7.20398 9.42986 7.20398 9.48094 7.23645 9.51127C7.24671 9.52085 7.25867 9.52723 7.27234 9.53043L9.70443 10.4132L8.86354 11.1985C8.63622 11.157 8.43968 11.1315 8.24484 11.1586C8.0329 11.189 7.83123 11.2815 7.60904 11.4891C7.57657 11.5194 7.57657 11.5705 7.60904 11.6008L8.05341 12.0222C8.06709 12.0366 8.08418 12.0446 8.10298 12.0461C8.19527 12.0557 8.28414 12.0653 8.36106 12.0717L8.47215 12.0829C8.4824 12.1004 8.49437 12.1164 8.50633 12.1323L8.50975 12.1371C8.53026 12.1643 8.55248 12.1882 8.57811 12.2122L8.58324 12.2169C8.6123 12.2425 8.64306 12.2664 8.67383 12.2872C8.69433 12.3 8.71484 12.3127 8.73706 12.3239L8.74903 12.4117C8.76099 12.4899 8.77466 12.5857 8.79346 12.6974C8.79688 12.7134 8.80543 12.7294 8.81739 12.7405L9.22929 13.1188C9.24638 13.1332 9.26689 13.1412 9.28911 13.1412C9.31304 13.1412 9.33526 13.1316 9.35064 13.1172Z" fill="white"/>
</svg>
