<svg width="100" height="23" viewBox="0 0 100 23" fill="none" xmlns="http://www.w3.org/2000/svg">
<path d="M30.0644 8.28125L29.4316 8.93164V11H28.0078V2H29.4316V7.19141L29.8769 6.63477L31.6288 4.66016H33.3398L30.9843 7.30273L33.5917 11H31.9453L30.0644 8.28125ZM38.9552 10.3789C38.5372 10.8711 37.9435 11.1172 37.1739 11.1172C36.4864 11.1172 35.9649 10.916 35.6095 10.5137C35.2579 10.1113 35.0821 9.5293 35.0821 8.76758V4.66016H36.506V8.75C36.506 9.55469 36.8399 9.95703 37.5079 9.95703C38.1993 9.95703 38.6661 9.70898 38.9083 9.21289V4.66016H40.3321V11H38.9903L38.9552 10.3789ZM44.137 11H42.7131V4.66016H44.137V11ZM42.6253 3.01367C42.6253 2.79492 42.6936 2.61328 42.8303 2.46875C42.971 2.32422 43.1702 2.25195 43.428 2.25195C43.6858 2.25195 43.885 2.32422 44.0256 2.46875C44.1663 2.61328 44.2366 2.79492 44.2366 3.01367C44.2366 3.22852 44.1663 3.4082 44.0256 3.55273C43.885 3.69336 43.6858 3.76367 43.428 3.76367C43.1702 3.76367 42.971 3.69336 42.8303 3.55273C42.6936 3.4082 42.6253 3.22852 42.6253 3.01367ZM47.8539 4.66016L47.8949 5.39258C48.3637 4.82617 48.9789 4.54297 49.7406 4.54297C51.061 4.54297 51.7328 5.29883 51.7563 6.81055V11H50.3324V6.89258C50.3324 6.49023 50.2445 6.19336 50.0688 6.00195C49.8969 5.80664 49.6137 5.70898 49.2192 5.70898C48.6449 5.70898 48.2172 5.96875 47.936 6.48828V11H46.5121V4.66016H47.8539ZM53.7857 7.77148C53.7857 7.15039 53.9088 6.5918 54.1549 6.0957C54.401 5.5957 54.7467 5.21289 55.192 4.94727C55.6373 4.67773 56.149 4.54297 56.7271 4.54297C57.5826 4.54297 58.276 4.81836 58.8072 5.36914C59.3424 5.91992 59.6314 6.65039 59.6744 7.56055L59.6803 7.89453C59.6803 8.51953 59.5592 9.07812 59.317 9.57031C59.0787 10.0625 58.7349 10.4434 58.2857 10.7129C57.8404 10.9824 57.3248 11.1172 56.7388 11.1172C55.8443 11.1172 55.1275 10.8203 54.5885 10.2266C54.0533 9.62891 53.7857 8.83398 53.7857 7.8418V7.77148ZM55.2095 7.89453C55.2095 8.54688 55.3443 9.05859 55.6138 9.42969C55.8834 9.79688 56.2584 9.98047 56.7388 9.98047C57.2193 9.98047 57.5924 9.79297 57.858 9.41797C58.1275 9.04297 58.2623 8.49414 58.2623 7.77148C58.2623 7.13086 58.1236 6.62305 57.8463 6.24805C57.5728 5.87305 57.1998 5.68555 56.7271 5.68555C56.2623 5.68555 55.8931 5.87109 55.6197 6.24219C55.3463 6.60938 55.2095 7.16016 55.2095 7.89453ZM65.5124 11C65.4499 10.8789 65.3953 10.6816 65.3484 10.4082C64.8953 10.8809 64.3406 11.1172 63.6843 11.1172C63.0476 11.1172 62.5281 10.9355 62.1257 10.5723C61.7234 10.209 61.5222 9.75977 61.5222 9.22461C61.5222 8.54883 61.7722 8.03125 62.2722 7.67188C62.7761 7.30859 63.4949 7.12695 64.4285 7.12695H65.3015V6.71094C65.3015 6.38281 65.2097 6.12109 65.0261 5.92578C64.8425 5.72656 64.5632 5.62695 64.1882 5.62695C63.864 5.62695 63.5984 5.70898 63.3913 5.87305C63.1843 6.0332 63.0808 6.23828 63.0808 6.48828H61.657C61.657 6.14062 61.7722 5.81641 62.0027 5.51562C62.2331 5.21094 62.5456 4.97266 62.9402 4.80078C63.3386 4.62891 63.782 4.54297 64.2703 4.54297C65.0124 4.54297 65.6042 4.73047 66.0456 5.10547C66.487 5.47656 66.7136 6 66.7253 6.67578V9.53516C66.7253 10.1055 66.8054 10.5605 66.9656 10.9004V11H65.5124ZM63.948 9.97461C64.2292 9.97461 64.4929 9.90625 64.739 9.76953C64.989 9.63281 65.1765 9.44922 65.3015 9.21875V8.02344H64.5339C64.0066 8.02344 63.6101 8.11523 63.3445 8.29883C63.0788 8.48242 62.946 8.74219 62.946 9.07812C62.946 9.35156 63.0359 9.57031 63.2156 9.73438C63.3992 9.89453 63.6433 9.97461 63.948 9.97461ZM69.9442 9.5C70.2099 9.5 70.4149 9.57617 70.5595 9.72852C70.704 9.87695 70.7763 10.0645 70.7763 10.291C70.7763 10.5137 70.704 10.6992 70.5595 10.8477C70.4149 10.9922 70.2099 11.0645 69.9442 11.0645C69.6903 11.0645 69.4892 10.9922 69.3407 10.8477C69.1923 10.7031 69.1181 10.5176 69.1181 10.291C69.1181 10.0645 69.1903 9.87695 69.3349 9.72852C69.4794 9.57617 69.6825 9.5 69.9442 9.5ZM75.8526 9.98047C76.2081 9.98047 76.503 9.87695 76.7374 9.66992C76.9717 9.46289 77.0967 9.20703 77.1124 8.90234H78.4542C78.4385 9.29688 78.3155 9.66602 78.085 10.0098C77.8545 10.3496 77.542 10.6191 77.1475 10.8184C76.753 11.0176 76.3272 11.1172 75.8702 11.1172C74.9835 11.1172 74.2803 10.8301 73.7608 10.2559C73.2413 9.68164 72.9815 8.88867 72.9815 7.87695V7.73047C72.9815 6.76562 73.2393 5.99414 73.7549 5.41602C74.2706 4.83398 74.9737 4.54297 75.8643 4.54297C76.6182 4.54297 77.2315 4.76367 77.7042 5.20508C78.1807 5.64258 78.4307 6.21875 78.4542 6.93359H77.1124C77.0967 6.57031 76.9717 6.27148 76.7374 6.03711C76.5069 5.80273 76.212 5.68555 75.8526 5.68555C75.3917 5.68555 75.0362 5.85352 74.7862 6.18945C74.5362 6.52148 74.4092 7.02734 74.4053 7.70703V7.93555C74.4053 8.62305 74.5284 9.13672 74.7745 9.47656C75.0245 9.8125 75.3838 9.98047 75.8526 9.98047ZM80.1028 7.77148C80.1028 7.15039 80.2258 6.5918 80.4719 6.0957C80.718 5.5957 81.0637 5.21289 81.509 4.94727C81.9543 4.67773 82.466 4.54297 83.0442 4.54297C83.8996 4.54297 84.593 4.81836 85.1242 5.36914C85.6594 5.91992 85.9485 6.65039 85.9914 7.56055L85.9973 7.89453C85.9973 8.51953 85.8762 9.07812 85.634 9.57031C85.3957 10.0625 85.052 10.4434 84.6028 10.7129C84.1574 10.9824 83.6418 11.1172 83.0559 11.1172C82.1613 11.1172 81.4445 10.8203 80.9055 10.2266C80.3703 9.62891 80.1028 8.83398 80.1028 7.8418V7.77148ZM81.5266 7.89453C81.5266 8.54688 81.6613 9.05859 81.9309 9.42969C82.2004 9.79688 82.5754 9.98047 83.0559 9.98047C83.5363 9.98047 83.9094 9.79297 84.175 9.41797C84.4445 9.04297 84.5793 8.49414 84.5793 7.77148C84.5793 7.13086 84.4406 6.62305 84.1633 6.24805C83.8899 5.87305 83.5168 5.68555 83.0442 5.68555C82.5793 5.68555 82.2102 5.87109 81.9367 6.24219C81.6633 6.60938 81.5266 7.16016 81.5266 7.89453ZM89.3803 4.66016L89.4213 5.32227C89.8666 4.80273 90.476 4.54297 91.2494 4.54297C92.097 4.54297 92.6771 4.86719 92.9896 5.51562C93.4506 4.86719 94.099 4.54297 94.9349 4.54297C95.6342 4.54297 96.1537 4.73633 96.4935 5.12305C96.8373 5.50977 97.0131 6.08008 97.0209 6.83398V11H95.597V6.875C95.597 6.47266 95.5092 6.17773 95.3334 5.99023C95.1576 5.80273 94.8666 5.70898 94.4603 5.70898C94.1361 5.70898 93.8705 5.79688 93.6635 5.97266C93.4603 6.14453 93.3178 6.37109 93.2357 6.65234L93.2416 11H91.8178V6.82812C91.7982 6.08203 91.4174 5.70898 90.6752 5.70898C90.1049 5.70898 89.7006 5.94141 89.4623 6.40625V11H88.0385V4.66016H89.3803Z" fill="black"/>
<path d="M31.9628 16.1094H30.1894V21H29.2089V16.1094H27.4511V15.3125H31.9628V16.1094ZM35.6027 18.8086H34.5011V21H33.5128V15.3125H35.5128C36.1691 15.3125 36.6756 15.4596 37.0324 15.7539C37.3891 16.0482 37.5675 16.474 37.5675 17.0312C37.5675 17.4115 37.4751 17.7305 37.2902 17.9883C37.1079 18.2435 36.8527 18.4401 36.5245 18.5781L37.8019 20.9492V21H36.7433L35.6027 18.8086ZM34.5011 18.0156H35.5167C35.8501 18.0156 36.1105 17.9323 36.298 17.7656C36.4855 17.5964 36.5792 17.3659 36.5792 17.0742C36.5792 16.7695 36.492 16.5339 36.3175 16.3672C36.1456 16.2005 35.8878 16.1146 35.5441 16.1094H34.5011V18.0156ZM42.4886 19.6758H40.2855L39.8245 21H38.7972L40.9456 15.3125H41.8324L43.9847 21H42.9535L42.4886 19.6758ZM40.5628 18.8789H42.2113L41.387 16.5195L40.5628 18.8789ZM47.1324 19.7617L48.5777 15.3125H49.6636L47.6167 21H46.6597L44.6206 15.3125H45.7027L47.1324 19.7617ZM54.4324 18.4609H52.0964V20.2109H54.8269V21H51.1081V15.3125H54.7995V16.1094H52.0964V17.6797H54.4324V18.4609ZM57.4199 20.2109H60.0019V21H56.4316V15.3125H57.4199V20.2109ZM67.5355 19.6758H65.3324L64.8714 21H63.8441L65.9925 15.3125H66.8792L69.0316 21H68.0003L67.5355 19.6758ZM65.6097 18.8789H67.2581L66.4339 16.5195L65.6097 18.8789ZM74.7535 20.2617C74.5477 20.5299 74.2626 20.7331 73.898 20.8711C73.5334 21.0091 73.1193 21.0781 72.6558 21.0781C72.1792 21.0781 71.7574 20.9701 71.3902 20.7539C71.023 20.5378 70.7391 20.2292 70.5386 19.8281C70.3407 19.4245 70.2378 18.9544 70.23 18.418V17.9727C70.23 17.1133 70.4357 16.4427 70.8472 15.9609C71.2587 15.4766 71.8329 15.2344 72.5699 15.2344C73.2027 15.2344 73.7053 15.3906 74.0777 15.7031C74.4501 16.0156 74.674 16.4661 74.7495 17.0547H73.7808C73.6714 16.3698 73.2743 16.0273 72.5894 16.0273C72.1467 16.0273 71.8094 16.1875 71.5777 16.5078C71.3485 16.8255 71.23 17.293 71.2222 17.9102V18.3477C71.2222 18.9622 71.3511 19.4401 71.6089 19.7812C71.8693 20.1198 72.23 20.2891 72.691 20.2891C73.1962 20.2891 73.5555 20.1745 73.7691 19.9453V18.832H72.5972V18.082H74.7535V20.2617ZM79.9636 18.4609H77.6277V20.2109H80.3581V21H76.6394V15.3125H80.3308V16.1094H77.6277V17.6797H79.9636V18.4609ZM86.4745 21H85.4863L82.9511 16.9648V21H81.9628V15.3125H82.9511L85.4941 19.3633V15.3125H86.4745V21ZM92.7824 19.1484C92.7251 19.7552 92.5011 20.2292 92.1105 20.5703C91.7199 20.9089 91.2003 21.0781 90.5519 21.0781C90.0988 21.0781 89.699 20.9714 89.3527 20.7578C89.0089 20.5417 88.7433 20.2357 88.5558 19.8398C88.3683 19.444 88.2706 18.9844 88.2628 18.4609V17.9297C88.2628 17.3932 88.3579 16.9206 88.548 16.5117C88.7381 16.1029 89.0102 15.7878 89.3644 15.5664C89.7212 15.3451 90.1326 15.2344 90.5988 15.2344C91.2264 15.2344 91.7316 15.4049 92.1144 15.7461C92.4972 16.0872 92.7199 16.569 92.7824 17.1914H91.798C91.7511 16.7826 91.6313 16.4883 91.4386 16.3086C91.2485 16.1263 90.9686 16.0352 90.5988 16.0352C90.1691 16.0352 89.8383 16.1927 89.6066 16.5078C89.3774 16.8203 89.2602 17.2799 89.255 17.8867V18.3906C89.255 19.0052 89.3644 19.474 89.5831 19.7969C89.8045 20.1198 90.1274 20.2812 90.5519 20.2812C90.9399 20.2812 91.2316 20.194 91.4269 20.0195C91.6222 19.8451 91.7459 19.5547 91.798 19.1484H92.7824ZM96.3245 18.0078L97.6331 15.3125H98.7269L96.8206 18.9062V21H95.8285V18.9062L93.9183 15.3125H95.016L96.3245 18.0078Z" fill="black" fill-opacity="0.7"/>
<path d="M20.7265 7.78405L7.69276 19.9572C7.68593 19.9636 7.67738 19.97 7.66884 19.9732C7.58338 20.0498 7.48425 20.1073 7.37999 20.1472C7.26377 20.1919 7.14243 20.2142 7.01937 20.2142C6.89631 20.2142 6.77497 20.1919 6.65874 20.1472C6.55107 20.1057 6.44852 20.0434 6.35965 19.962L4.64198 18.3593C4.58387 18.3051 4.5514 18.2348 4.54285 18.1598C4.53601 18.0896 4.5531 18.0161 4.59412 17.9523L4.59925 17.9443C4.70009 17.8022 4.77016 17.6474 4.81118 17.4862C4.85391 17.3234 4.86587 17.1542 4.84878 16.9865V16.9849C4.82998 16.8205 4.78213 16.6577 4.70522 16.5045C4.63172 16.3592 4.52918 16.2203 4.39928 16.099C4.26939 15.9777 4.12241 15.8819 3.96517 15.8133C3.80109 15.7399 3.62676 15.6952 3.45072 15.6792C3.2781 15.6632 3.09864 15.6744 2.92602 15.7127C2.75682 15.751 2.59445 15.8149 2.44576 15.9043C2.37568 15.9538 2.29364 15.9745 2.21161 15.9681C2.12957 15.9633 2.04753 15.9298 1.986 15.8723L0.275169 14.2729C0.184585 14.1883 0.11793 14.0909 0.0717832 13.9888C0.0239277 13.8818 0 13.7669 0 13.6519C0 13.537 0.0239277 13.4221 0.0717832 13.3151C0.11622 13.213 0.182876 13.1188 0.270041 13.0358L13.3089 0.856243C13.3995 0.77164 13.5038 0.709386 13.6132 0.666286C13.7294 0.621591 13.8524 0.599243 13.9755 0.599243C14.0986 0.599243 14.2216 0.621591 14.3361 0.666286C14.4472 0.709386 14.5515 0.77164 14.6404 0.856243L16.3649 2.46688C16.4195 2.51796 16.4537 2.5866 16.4623 2.65843C16.4708 2.72707 16.4571 2.8005 16.4178 2.86435L16.4144 2.86914C16.3221 3.00801 16.2572 3.15806 16.2196 3.3145C16.182 3.47412 16.1734 3.64014 16.1939 3.80136V3.80296C16.2145 3.96258 16.264 4.11902 16.3426 4.26747C16.4161 4.40794 16.517 4.54203 16.6452 4.66175V4.66335C16.7699 4.78307 16.9118 4.87565 17.0622 4.94588C17.2194 5.01772 17.3903 5.06401 17.563 5.08316C17.7322 5.10232 17.9048 5.09593 18.074 5.06241C18.2398 5.03049 18.4021 4.97302 18.5508 4.89002C18.6209 4.84851 18.7029 4.82936 18.785 4.83574C18.8636 4.84213 18.9405 4.87246 19.0003 4.92992L20.7248 6.54056C20.8154 6.62516 20.8821 6.72253 20.9282 6.82469C20.9761 6.93324 21 7.04817 21 7.16151C21 7.27644 20.9761 7.39137 20.9282 7.49832C20.8838 7.59888 20.8171 7.69466 20.73 7.77767L20.7265 7.78405ZM3.35672 11.0867L9.7796 17.0855L17.6484 9.73629L11.2255 3.73751L3.35672 11.0867ZM9.28909 17.542L2.8662 11.5449L0.775942 13.4971C0.753723 13.5179 0.736632 13.5418 0.726377 13.5689C0.714414 13.5977 0.707577 13.628 0.707577 13.6567C0.707577 13.6887 0.712704 13.7174 0.724668 13.7445C0.736632 13.7701 0.753723 13.7956 0.775942 13.8164L2.30048 15.2402C2.48165 15.1572 2.67307 15.0982 2.8662 15.063C3.08326 15.0247 3.30374 15.0152 3.5225 15.0359C3.77887 15.0583 4.03011 15.1205 4.26426 15.2243C4.49499 15.3264 4.70864 15.4653 4.89835 15.6425C5.08464 15.8165 5.23163 16.016 5.3393 16.2283C5.4521 16.4502 5.52047 16.688 5.54781 16.9275C5.57003 17.1318 5.56149 17.3393 5.51876 17.5405C5.48116 17.7224 5.41792 17.8996 5.32905 18.0688L6.85358 19.4927C6.8758 19.5134 6.90144 19.5294 6.9305 19.539C6.96126 19.5502 6.99373 19.5565 7.0245 19.5565C7.05697 19.5565 7.08944 19.5502 7.1185 19.539C7.14585 19.5278 7.17319 19.5118 7.19541 19.4911L9.28909 17.542ZM11.716 3.27938L18.1389 9.27816L20.2326 7.32273C20.2411 7.31475 20.2497 7.30996 20.2599 7.30677C20.2719 7.2908 20.2822 7.27484 20.289 7.25728C20.301 7.22855 20.3078 7.19822 20.3078 7.16949C20.3078 7.13916 20.3027 7.11043 20.2907 7.08489L20.289 7.08169C20.2787 7.05615 20.2617 7.03381 20.2411 7.01305L18.6978 5.57162C18.5166 5.64665 18.3286 5.69932 18.1355 5.72965C17.9236 5.76158 17.7082 5.76637 17.4929 5.74242C17.2416 5.71529 16.9989 5.64984 16.7699 5.54608C16.5477 5.44552 16.3409 5.30983 16.1563 5.13744C15.9718 4.96504 15.8265 4.77189 15.7188 4.56438C15.6077 4.34888 15.5359 4.12061 15.5069 3.88756C15.4812 3.68802 15.4864 3.48689 15.5205 3.28896C15.553 3.10858 15.6094 2.93299 15.6898 2.76378L14.1498 1.32555C14.1293 1.30639 14.1037 1.29043 14.0763 1.27925L14.0729 1.27766C14.0422 1.26648 14.0097 1.2601 13.9789 1.2601C13.9447 1.2601 13.914 1.26489 13.8849 1.27606C13.8576 1.28724 13.8302 1.3032 13.808 1.32395L11.716 3.27938Z" fill="black"/>
<path d="M9.35064 13.1172C9.5489 12.9321 9.64119 12.7421 9.67366 12.541C9.70272 12.3558 9.68392 12.1643 9.65486 11.9536L10.5026 11.1618L11.4324 13.4205C11.4494 13.4604 11.499 13.4812 11.5417 13.4652C11.552 13.4604 11.5622 13.4557 11.5708 13.4477C11.7605 13.2721 11.9092 13.1667 12.022 13.0869L12.0223 13.0867C12.3416 12.8618 12.4031 12.8185 12.2561 12.2074L12.6458 11.8434C12.6783 11.8131 12.6783 11.762 12.6458 11.7317L12.2527 11.3645C12.2203 11.3342 12.1656 11.3342 12.1331 11.3645L12.063 11.43L11.9998 11.1746L12.4407 10.7627C12.4732 10.7324 12.4732 10.6813 12.4407 10.651L12.0476 10.2839C12.0152 10.2535 11.9605 10.2535 11.928 10.2839L11.8066 10.3972L11.7144 10.0285L12.6817 9.12497C12.7706 9.04037 12.8048 8.92065 12.786 8.79614C12.7689 8.67802 12.7039 8.55511 12.598 8.45614L12.5963 8.45454C12.4903 8.35717 12.3604 8.29651 12.2356 8.28055C12.1023 8.26299 11.9741 8.29332 11.8836 8.37792L10.9162 9.28141L10.5163 9.19521L10.6393 9.08028C10.6718 9.04995 10.6718 8.99887 10.6393 8.96854L10.2462 8.6014C10.2137 8.57107 10.1591 8.57107 10.1266 8.6014L9.68392 9.01483L9.41046 8.95577L9.48224 8.88873C9.51471 8.8584 9.51471 8.80732 9.48224 8.77699L9.08914 8.40984C9.05667 8.37952 9.00198 8.37952 8.9695 8.40984L8.57811 8.77539C7.92585 8.63505 7.88941 8.67794 7.62689 8.98681L7.62613 8.98769C7.53897 9.08986 7.42275 9.22554 7.23645 9.39953C7.20398 9.42986 7.20398 9.48094 7.23645 9.51127C7.24671 9.52085 7.25867 9.52723 7.27234 9.53043L9.70443 10.4132L8.86354 11.1985C8.63622 11.157 8.43968 11.1315 8.24484 11.1586C8.0329 11.189 7.83123 11.2815 7.60904 11.4891C7.57657 11.5194 7.57657 11.5705 7.60904 11.6008L8.05341 12.0222C8.06709 12.0366 8.08418 12.0446 8.10298 12.0461C8.19527 12.0557 8.28414 12.0653 8.36106 12.0717L8.47215 12.0829C8.4824 12.1004 8.49437 12.1164 8.50633 12.1323L8.50975 12.1371C8.53026 12.1643 8.55248 12.1882 8.57811 12.2122L8.58324 12.2169C8.6123 12.2425 8.64306 12.2664 8.67383 12.2872C8.69433 12.3 8.71484 12.3127 8.73706 12.3239L8.74903 12.4117C8.76099 12.4899 8.77466 12.5857 8.79346 12.6974C8.79688 12.7134 8.80543 12.7294 8.81739 12.7405L9.22929 13.1188C9.24638 13.1332 9.26689 13.1412 9.28911 13.1412C9.31304 13.1412 9.33526 13.1316 9.35064 13.1172Z" fill="black"/>
</svg>
